<svg fill="#5B6974" xmlns="http://www.w3.org/2000/svg" xmlns:xlink="http://www.w3.org/1999/xlink" version="1.0" x="0px" y="0px" viewBox="0 0 100 100" enable-background="new 0 0 100 100" xml:space="preserve"><g><path d="M95.78,48.02L82.69,10.65C82.12,9.02,80.6,8,78.96,8c-0.43,0-0.87,0.07-1.31,0.22c-10.4,3.65-37.11,13-46.86,16.41   c-1.35,0.47-2.29,1.65-2.58,3.05C27.94,29,27,30.15,25.64,30.63c-0.44,0.15-0.88,0.22-1.31,0.22c-0.94,0-1.84-0.33-2.54-0.92   c-0.76-0.64-1.7-0.99-2.65-0.99c-0.43,0-0.86,0.07-1.27,0.21c-4.31,1.51-11.22,3.93-11.22,3.93c-2.06,0.72-3.15,2.98-2.43,5.05   l2.18,6.21C4.98,44.96,4,46.36,4,48v40c0,2.21,1.78,4,5.08,4H20c1.45,0,2.74-0.8,3.48-2.05c0.7-1.17,1.98-1.95,3.44-1.95   c1.47,0,2.74,0.78,3.44,1.95C31.1,91.2,32.4,92,33.85,92H84c2.21,0,4-1.79,4-4V54.94l5.35-1.87C95.41,52.34,96.5,50.08,95.78,48.02   z M84,88l-50.11,0.01c0,0-0.05-0.03-0.09-0.1C32.36,85.5,29.73,84,26.92,84c-2.8,0-5.44,1.5-6.87,3.91   c-0.04,0.06-0.07,0.08-0.07,0.09H9.08C8.49,88,8.16,87.9,8,87.83V48.92V48h3.92l8.04-0.01c0,0,0.04,0.02,0.09,0.1   C21.48,50.5,24.12,52,26.92,52c2.81,0,5.44-1.5,6.88-3.91c0.03-0.05,0.06-0.08,0.07-0.09H84v4.1v4.24V88z M88,50.7V48   c0-2.21-1.79-4-3.99-4H53.344l8.521-2.983c1.032-0.361,1.576-1.491,1.214-2.522c-0.285-0.815-1.051-1.326-1.868-1.326   c-0.217,0-0.438,0.036-0.654,0.112l-16.815,5.887c-0.446,0.156-0.793,0.46-1.023,0.833H33.84c-1.45,0-2.74,0.8-3.48,2.05   c-0.7,1.17-1.97,1.95-3.44,1.95c-1.46,0-2.74-0.78-3.44-1.95C22.74,44.8,21.45,44,20.01,44h-9.49l-2.51-7.16l11.13-3.89   c0.02,0,0.05,0.02,0.08,0.05c1.43,1.19,3.25,1.85,5.11,1.85c0.822,0,1.642-0.142,2.432-0.399c-0.907,0.426-1.369,1.47-1.031,2.437   l1.308,3.737c0.361,1.032,1.491,1.576,2.522,1.214c1.032-0.361,1.576-1.491,1.214-2.522l-1.308-3.737   c-0.336-0.959-1.336-1.487-2.304-1.267c2.525-0.965,4.42-3.176,4.965-5.833c0.01-0.04,0.02-0.07,0.03-0.09l46.77-16.38L91.99,49.3   L88,50.7z"></path><path d="M72.887,22.594c-0.217,0-0.438,0.036-0.654,0.112L40.47,33.825c-1.032,0.361-1.576,1.491-1.214,2.522   c0.286,0.815,1.051,1.326,1.868,1.326c0.217,0,0.438-0.036,0.654-0.112l31.762-11.12c1.032-0.361,1.576-1.491,1.214-2.522   C74.469,23.104,73.704,22.594,72.887,22.594z"></path><path d="M26.923,76c-1.104,0-2,0.896-2,2v4c0,1.104,0.896,2,2,2s2-0.896,2-2v-4C28.923,76.896,28.028,76,26.923,76z"></path><path d="M26.923,64c-1.104,0-2,0.896-2,2v4c0,1.104,0.896,2,2,2s2-0.896,2-2v-4C28.923,64.896,28.028,64,26.923,64z"></path><path d="M26.923,52c-1.104,0-2,0.896-2,2v4c0,1.104,0.896,2,2,2s2-0.896,2-2v-4C28.923,52.896,28.028,52,26.923,52z"></path><path d="M74,56H40c-1.105,0-2,0.895-2,2c0,1.105,0.895,2,2,2h34c1.105,0,2-0.895,2-2C76,56.895,75.105,56,74,56z"></path><path d="M40,70h18c1.105,0,2-0.895,2-2c0-1.105-0.895-2-2-2H40c-1.105,0-2,0.895-2,2C38,69.105,38.895,70,40,70z"></path><path d="M66,76H40c-1.105,0-2,0.895-2,2c0,1.105,0.895,2,2,2h26c1.105,0,2-0.895,2-2C68,76.895,67.105,76,66,76z"></path></g></svg>