<svg fill="#5B6974" xmlns="http://www.w3.org/2000/svg" viewBox="0 0 64 64" x="0px" y="0px"><title>stamp-collecting-post-art</title><path d="M61,7a4,4,0,0,0-7.874-1H50.874a4,4,0,0,0-7.748,0H40.874a4,4,0,0,0-7.748,0H30.874a4,4,0,0,0-7.748,0H20.874a4,4,0,0,0-7.748,0H10.874A4,4,0,1,0,6,10.874v2.252a4,4,0,0,0,0,7.748v2.252a4,4,0,0,0,0,7.748v2.252a4,4,0,0,0,0,7.748v2.252a4,4,0,0,0,0,7.748v2.252A4,4,0,1,0,10.874,58h2.252a4,4,0,0,0,7.748,0h2.252a4,4,0,0,0,7.748,0h2.252a4,4,0,0,0,7.748,0h2.252a4,4,0,0,0,7.748,0h2.252A4,4,0,1,0,58,53.126V50.874a4,4,0,0,0,0-7.748V40.874a4,4,0,0,0,0-7.748V30.874a4,4,0,0,0,0-7.748V20.874a4,4,0,0,0,0-7.748V10.874A4.009,4.009,0,0,0,61,7Zm-4,8a2,2,0,0,1,0,4,1,1,0,0,0-1,1v4a1,1,0,0,0,1,1,2,2,0,0,1,0,4,1,1,0,0,0-1,1v4a1,1,0,0,0,1,1,2,2,0,0,1,0,4,1,1,0,0,0-1,1v4a1,1,0,0,0,1,1,2,2,0,0,1,0,4,1,1,0,0,0-1,1v4a1,1,0,0,0,1,1,2,2,0,1,1-2,2,1,1,0,0,0-1-1H50a1,1,0,0,0-1,1,2,2,0,0,1-4,0,1,1,0,0,0-1-1H40a1,1,0,0,0-1,1,2,2,0,0,1-4,0,1,1,0,0,0-1-1H30a1,1,0,0,0-1,1,2,2,0,0,1-4,0,1,1,0,0,0-1-1H20a1,1,0,0,0-1,1,2,2,0,0,1-4,0,1,1,0,0,0-1-1H10a1,1,0,0,0-1,1,2,2,0,1,1-2-2,1,1,0,0,0,1-1V50a1,1,0,0,0-1-1,2,2,0,0,1,0-4,1,1,0,0,0,1-1V40a1,1,0,0,0-1-1,2,2,0,0,1,0-4,1,1,0,0,0,1-1V30a1,1,0,0,0-1-1,2,2,0,0,1,0-4,1,1,0,0,0,1-1V20a1,1,0,0,0-1-1,2,2,0,0,1,0-4,1,1,0,0,0,1-1V10A1,1,0,0,0,7,9,2,2,0,1,1,9,7a1,1,0,0,0,1,1h4a1,1,0,0,0,1-1,2,2,0,0,1,4,0,1,1,0,0,0,1,1h4a1,1,0,0,0,1-1,2,2,0,0,1,4,0,1,1,0,0,0,1,1h4a1,1,0,0,0,1-1,2,2,0,0,1,4,0,1,1,0,0,0,1,1h4a1,1,0,0,0,1-1,2,2,0,0,1,4,0,1,1,0,0,0,1,1h4a1,1,0,0,0,1-1,2,2,0,1,1,2,2,1,1,0,0,0-1,1v4A1,1,0,0,0,57,15Z"></path><path d="M51,12H13a1,1,0,0,0-1,1V51a1,1,0,0,0,1,1H51a1,1,0,0,0,1-1V13A1,1,0,0,0,51,12ZM50,50H14V14H50Z"></path><path d="M20.553,30.9,22,31.618v1.231a4.163,4.163,0,0,0,2.684,5.1,1.01,1.01,0,0,0,.512.031l4.019-.8.655,3.273L23.1,43.866a.969.969,0,0,0-.1.06,1.68,1.68,0,0,0,.718,3.064,48.04,48.04,0,0,0,6.664.465,47.97,47.97,0,0,0,7.9-.655l4.884-.814a1,1,0,0,0,.616-1.611l-3.838-4.8-.457-2.743A.986.986,0,0,0,40,37h3a1,1,0,0,0,.9-.553l1-2a1,1,0,0,0,.075-.69L43.98,29.8l-1-5a.99.99,0,0,0-.18-.4l-3-4a1,1,0,0,0-.285-.257l-5-3a.97.97,0,0,0-.319-.123l-5-1a.971.971,0,0,0-.439.01l-4,1a1,1,0,0,0-.464.263l-1,1a1,1,0,0,0-.188,1.154l.815,1.63-1.826,5.48-1.926,2.888a1,1,0,0,0,.385,1.45ZM25.511,18.9l3.513-.878,4.61.922,4.683,2.81,2.747,3.661.966,4.825.91,3.641L42.382,35H40.414l-5.637-5.637-3.945-5.918a.994.994,0,0,0-.317-.3l-4.751-2.851-.547-1.1Zm-1.679,8.652a1.06,1.06,0,0,0,.117-.239L25.555,22.5l3.737,2.243,3.876,5.813a1.011,1.011,0,0,0,.125.152l3.773,3.773.948,5.685a1,1,0,0,0,.2.46l2.935,3.669-3.2.534a45.991,45.991,0,0,1-12.937.313l6.436-3.248A1,1,0,0,0,31.98,40.8l-1-5A1,1,0,0,0,29.8,35.02l-4.713.942a2.162,2.162,0,0,1-1.142-2.646A1,1,0,0,0,24,33V31a1,1,0,0,0-.553-.895l-.987-.493Z"></path></svg>