<svg fill="#5B6974" xmlns="http://www.w3.org/2000/svg" xmlns:xlink="http://www.w3.org/1999/xlink" version="1.1" x="0px" y="0px" viewBox="0 0 64 64" style="enable-background:new 0 0 64 64;" xml:space="preserve"><g><path d="M44,44c-1.654,0-3,1.346-3,3s1.346,3,3,3s3-1.346,3-3S45.654,44,44,44z M44,48c-0.552,0-1-0.448-1-1s0.448-1,1-1   s1,0.448,1,1S44.552,48,44,48z"></path><path d="M62.922,28.924l-1.056-6.662l-3.197,2.24l-3.181-6.686l-2.669,4.808c-1.496,2.695-2.098,5.88-1.696,8.967l0.018,0.1   c0.399,1.695,1.508,3.034,2.943,3.745v8.667c-1.315-0.235-2.705-0.031-3.897,0.615c-0.881-1.674-2.393-2.897-4.187-3.426V20.415   l1.438-1.438C48.445,17.969,49,16.63,49,15.206c0-1.7-0.821-3.312-2.196-4.312l-6.09-4.43C40.894,6.01,41,5.518,41,5   c0-2.206-1.794-4-4-4c-1.628,0-3.025,0.98-3.649,2.378l-13.922-2.32C19.199,1.019,18.965,1,18.732,1h-0.496C15.9,1,14,2.9,14,5.236   c0,0.654,0.154,1.309,0.447,1.895l1.34,2.681C12.112,13.217,10,17.967,10,23v25.522c-1.875,1.502-3.313,3.529-4.038,5.857L2.524,63   H48c2.275,0,4.445-0.698,6.276-1.976C54.696,62.173,55.791,63,57.084,63c1.654,0,3-1.346,3-3V35.176   c1.415-0.856,2.47-2.315,2.805-4.075C63.025,30.384,63.037,29.651,62.922,28.924z M21,53v2h-2v-7.527l2-0.308V51h2v-1.741   C24.119,50.23,25.735,51,28,51s3.881-0.77,5-1.741V55H23v-2H21z M14.568,33.956C13.119,33.745,12,32.506,12,31   c0-1.302,0.839-2.402,2-2.816V29L14.568,33.956z M16,26h4.597c4.057,0,8.041-1.3,11.315-3.676c2.21,2.139,5.046,3.399,8.088,3.629   v2.99l-0.737,6.383c-0.185,1.849-0.988,3.558-2.263,4.812C35.208,41.899,32.192,44,28,44s-7.208-2.101-9-3.863   c-1.274-1.254-2.078-2.963-2.265-4.827L16,28.942V26z M41.994,28.182C43.159,28.595,44,29.696,44,31   c0,1.506-1.118,2.744-2.566,2.956l0.559-4.841L41.994,28.182z M28,46c1.876,0,3.539-0.362,5-0.918v0.773   C32.828,46.375,31.777,49,28,49c-3.776,0-4.825-2.613-5-3.146v-0.773C24.461,45.638,26.124,46,28,46z M35,47.165l2,0.308V48v4v3h-2   V47.165z M37.462,45.521L35,45.142v-1.014c1.383-0.785,2.529-1.706,3.402-2.565c1.503-1.479,2.477-3.453,2.785-5.581   c1.056-0.04,2.022-0.408,2.812-1.007V41C41.014,41,38.466,42.883,37.462,45.521z M37,3c1.103,0,2,0.897,2,2s-0.897,2-2,2   s-2-0.897-2-2S35.897,3,37,3z M18.236,3h0.496c0.123,0,0.246,0.01,0.368,0.03l13.935,2.323C33.218,7.391,34.915,9,37,9   c0.964,0,1.837-0.356,2.528-0.926l6.1,4.437C46.487,13.136,47,14.143,47,15.206c0,0.891-0.347,1.727-0.976,2.356l-1.284,1.284   L17.715,9.193l-1.479-2.958C16.082,5.927,16,5.581,16,5.236C16,4.003,17.003,3,18.236,3z M17.27,11.158L44,20.705v6.321   c-0.585-0.443-1.258-0.773-2.003-0.925L42,24h-1c-2.957,0-5.737-1.152-7.828-3.243l-1.098-1.097l-0.699,0.559   C28.328,22.657,24.5,24,20.597,24H16h-1h-1v2.101c-0.743,0.152-1.416,0.482-2,0.924V23C12,18.469,13.924,14.192,17.27,11.158z    M12,34.974c0.791,0.599,1.756,0.967,2.812,1.007c0.312,2.136,1.286,4.106,2.785,5.581c0.874,0.86,2.019,1.78,3.402,2.565v1.014   l-5.164,0.794c-1.358,0.209-2.65,0.651-3.836,1.274V34.974z M7.845,55.047c1.169-3.737,4.425-6.538,8.296-7.134L17,47.781V55   h-1.117l0.109-0.876l-1.984-0.248L13.117,61H5.475L7.845,55.047z M15.133,61l0.5-4h22.582c0.821,1.6,2.019,2.973,3.481,4H15.133z    M39,52v-4c0-2.757,2.243-5,5-5c2.212,0,4.133,1.42,4.78,3.533l0.45,1.471l1.162-1.009C50.915,46.541,51.791,46,53,46   c0.373,0,0.733,0.069,1.084,0.168v12.451C52.419,60.151,50.273,61,48,61C43.037,61,39,56.963,39,52z M57.084,61   c-0.552,0-1-0.448-1-1V40h2v20C58.084,60.552,57.636,61,57.084,61z M58.084,38h-2v-2.029C56.195,35.978,56.302,36,56.415,36h0.749   c0.313,0,0.619-0.034,0.92-0.085V38z M60.924,30.727C60.563,32.624,58.981,34,57.164,34h-0.749c-1.561,0-2.917-1.116-3.315-2.719   c-0.333-2.649,0.188-5.377,1.468-7.686l0.784-1.412l2.528,5.314l2.512-1.76l0.555,3.5C61.025,29.734,61.018,30.236,60.924,30.727z"></path><path d="M21.5,34c1.379,0,2.5-1.122,2.5-2.5S22.879,29,21.5,29S19,30.122,19,31.5S20.121,34,21.5,34z M21.5,31   c0.275,0,0.5,0.224,0.5,0.5S21.775,32,21.5,32S21,31.776,21,31.5S21.225,31,21.5,31z"></path><path d="M34.5,34c1.379,0,2.5-1.122,2.5-2.5S35.879,29,34.5,29S32,30.122,32,31.5S33.121,34,34.5,34z M34.5,31   c0.275,0,0.5,0.224,0.5,0.5S34.775,32,34.5,32S34,31.776,34,31.5S34.225,31,34.5,31z"></path><path d="M22,37c0,2.757,2.243,5,5,5h2c2.757,0,5-2.243,5-5h-2c0,1.654-1.346,3-3,3h-2c-1.654,0-3-1.346-3-3H22z"></path></g></svg>