<svg fill="#1E6AA1" xmlns="http://www.w3.org/2000/svg" xmlns:xlink="http://www.w3.org/1999/xlink" version="1.1" x="0px" y="0px" viewBox="0 0 100 100" style="enable-background:new 0 0 100 100;" xml:space="preserve"><g><path d="M27.6,5.1c0,1.6,0,3,0,4.4c0,7.7,0,15.4,0,23.1c0,2.5,0.5,3,2.9,3c13.2,0,26.3,0,39.5,0c2.5,0,2.9-0.4,2.9-2.9   c0-8.3,0-16.6,0-24.9c0-0.8,0-1.6,0-2.4c3.3,0,6.4-0.1,9.5,0.1c0.7,0,1.4,0.7,2,1.2c2.3,2.1,4.5,4.3,6.8,6.5   c1.2,1.1,1.8,2.4,1.7,4.1c0,0.8,0,1.6,0,2.4c0,22.6,0,45.2,0,67.7c0,0.3,0,0.7,0,1c-0.1,4.5-2.1,6.6-6.6,6.6c-13,0-26,0-39.1,0   c-10.9,0-21.8,0-32.7,0c-5,0-7.1-2-7.1-7c0-25.2,0-50.5,0-75.7c0-5,2-7,7-7c3.7,0,7.4,0,11.2,0C26.1,5.1,26.8,5.1,27.6,5.1z    M50.1,86.8c9.8,0,19.7,0,29.5,0c2.7,0,3-0.3,3-2.9c0-12.5,0-25.1,0-37.6c0-2.5-0.5-2.9-2.9-2.9c-19.7,0-39.4,0-59.1,0   c-2.4,0-2.9,0.5-2.9,3c0,12.5,0,25.1,0,37.6c0,2.4,0.4,2.9,2.9,2.9C30.4,86.8,40.2,86.8,50.1,86.8z"></path><path d="M64.6,19.9c0,3.1,0,6.1,0,9.2c0,1.3-0.4,1.8-1.7,1.8c-2.3-0.1-4.6,0-7,0c-1.1,0-1.6-0.5-1.6-1.6c0-6.4,0-12.8,0-19.1   c0-1.1,0.6-1.5,1.6-1.5c2.3,0,4.6,0,7,0c1.2,0,1.7,0.4,1.6,1.7C64.6,13.5,64.6,16.7,64.6,19.9z"></path></g></svg>