<svg xmlns="http://www.w3.org/2000/svg" viewBox="15672.5 1914.848 16.678 18.305">
  <defs>
    <style>
      .cls-1 {
        fill: #1869a3;
      }
    </style>
  </defs>
  <g id="noun_Sliders_85733_3ba5c5" transform="translate(15672.5 1914.848)">
    <g id="Group_10" data-name="Group 10" transform="translate(0 0)">
      <path id="Path_6" data-name="Path 6" class="cls-1" d="M8.157,10.2V5.716a.715.715,0,1,0-1.43,0V10.2a2.447,2.447,0,0,0,0,4.678v7.711a.715.715,0,1,0,1.43,0V14.877a2.447,2.447,0,0,0,0-4.678Zm-.618,3.344a.483.483,0,0,0-.194,0,1.013,1.013,0,1,1,.194,0Z" transform="translate(-5 -5)"/>
      <path id="Path_7" data-name="Path 7" class="cls-1" d="M37.15,15.1V5.716a.715.715,0,1,0-1.429,0V15.1a2.448,2.448,0,0,0,0,4.678v2.811a.715.715,0,1,0,1.429,0V19.777a2.447,2.447,0,0,0,0-4.678Zm-.715,3.354a1.014,1.014,0,1,1,1.012-1.014A1.015,1.015,0,0,1,36.435,18.453Z" transform="translate(-28.096 -5)"/>
      <path id="Path_8" data-name="Path 8" class="cls-1" d="M67.87,8.807a2.45,2.45,0,0,0-1.727-2.339V5.717a.715.715,0,1,0-1.43,0v.751a2.448,2.448,0,0,0,0,4.678V22.589a.715.715,0,1,0,1.43,0V11.146A2.45,2.45,0,0,0,67.87,8.807Zm-2.4,1.01c-.016,0-.03,0-.046,0s-.03,0-.046,0a1.013,1.013,0,0,1,.046-2.024h0a1.013,1.013,0,0,1,.046,2.024Z" transform="translate(-51.192 -5)"/>
    </g>
  </g>
</svg>
